<svg xmlns="http://www.w3.org/2000/svg" width="40.193" height="40.186" viewBox="0 0 40.193 40.186">
  <path id="Path_325" data-name="Path 325" d="M71.618,51.441,68.976,41.58a.237.237,0,0,0-.012-.024.346.346,0,0,0-.015-.041c0-.009-.01-.016-.015-.025s-.007-.016-.013-.024-.017-.02-.025-.03a.269.269,0,0,0-.017-.024l-7.219-7.219a.372.372,0,0,0-.16-.093l-.007,0-9.861-2.642a.315.315,0,0,0-.037,0,.356.356,0,0,0-.12,0,.31.31,0,0,0-.037,0L41.575,34.1l-.006,0a.373.373,0,0,0-.162.094l-7.219,7.219c-.006.006-.009.015-.015.021a.336.336,0,0,0-.028.033c0,.007-.007.015-.012.023s-.011.016-.016.025a.376.376,0,0,0-.015.04.248.248,0,0,0-.012.025l-2.642,9.862a.368.368,0,0,0,0,.189s0,0,0,0L34.092,61.5c0,.013.015.022.02.035a.353.353,0,0,0,.057.1c.008.01.01.024.019.033l7.219,7.219s.009,0,.012.007a.369.369,0,0,0,.155.09l9.862,2.642a.38.38,0,0,0,.1.013.383.383,0,0,0,.1-.013l9.861-2.642a.369.369,0,0,0,.156-.09s.008,0,.012-.007l7.219-7.219c.009-.009.011-.023.019-.033a.353.353,0,0,0,.057-.1c0-.013.017-.022.021-.035l2.642-9.862s0,0,0,0A.373.373,0,0,0,71.618,51.441ZM39.1,64.127,34.807,61.19l-.574-5.825,3.2,5.764Zm1.86-22.934-1.519,3.1-4.293-2.635,8.323-5.6ZM68.767,53.36,61.855,54.9l-2.57.574,4.262-9.871.621.922Zm-8.247-2.63L58.6,55.171l-2.2-3.817L52.22,44.116l10.708,1.038ZM44.464,55.171,40.139,45.154l10.708-1.038-4.04,7ZM48.3,50.025l3.235-5.6,3.235,5.6L58,55.629H45.063Zm2.5-6.656-7.6.737-2.975.288L44.5,35.662l1.085,1.326ZM34.3,53.36l1.936-2.875,3.285-4.878,4.262,9.871L39.41,54.5Zm9.586,2.907L40.92,62.815,40.158,64.5,34.414,54.152Zm14.01.109-6.362,8.338-6.363-8.338Zm1.286-.109,9.471-2.115L62.909,64.5Zm3.664-11.872-4.832-.468-5.748-.557,6.306-7.707,2.916,5.958ZM52.367,42.066l-.833,1.018L45.2,35.348H57.862Zm-13.3,2.88-4.919,7.3.64-9.931ZM44.5,56.726l6.28,8.23H40.771Zm14.07,0,3.727,8.23H52.289Zm10.352-4.476L64,44.946l2.077-1.275,2.2-1.351.085,1.32Zm-1-10.589-3.037,1.864L63.63,44.3l-3.723-7.608-.306-.625,7.526,5.062ZM46.179,34.6l5.355-2.377L56.888,34.6ZM41.713,65.7H51.16v4.94l-6.291-3.29Zm10.194,4.94V65.7h9.447L58.2,67.354ZM68.834,55.365,68.26,61.19l-4.289,2.937ZM69.7,52.7l-.469-7.282,1.613,6.02ZM59.616,35.173l1.655-.312,4.352,4.352Zm-.919-.587-2.642-1.172,3.659.98Zm-14.326,0-1.018-.192,3.66-.98ZM33.837,45.419,33.368,52.7l-1.144-1.262L32.5,50.4Zm-.513,8.346.309,3.131-1.061-3.961Zm6.57,11.814.6,1.334-2.927-2.927Zm4.892,2.576,3.576,1.87L41.94,68.3l-.964-2.142Zm9.919,1.87,7.386-3.863L61.127,68.3l-.035.009Zm8.468-4.445L65.5,63.986l-2.927,2.927Zm6.569-11.814.753-.831L69.434,56.9ZM41.8,34.861l1.655.312-6.008,4.042Z" transform="translate(-31.437 -31.449)"/>
</svg>
